
<svg width="24" height="24" viewBox="0 0 24 24" fill="none" xmlns="http://www.w3.org/2000/svg">
  <path d="M12 2C6.477 2 2 6.477 2 12C2 16.418 4.865 20.166 8.839 21.489C9.339 21.579 9.5 21.278 9.5 21.017C9.5 20.778 9.492 20.044 9.489 19.192C6.728 19.79 6.139 17.81 6.139 17.81C5.685 16.619 5.029 16.318 5.029 16.318C4.145 15.698 5.094 15.708 5.094 15.708C6.075 15.777 6.597 16.733 6.597 16.733C7.473 18.262 8.948 17.857 9.517 17.602C9.609 16.932 9.876 16.527 10.168 16.319C7.975 16.11 5.664 15.276 5.664 11.504C5.664 10.396 6.055 9.488 6.616 8.778C6.51 8.526 6.168 7.529 6.715 6.101C6.715 6.101 7.538 5.836 9.474 7.115C10.295 6.899 11.15 6.791 12 6.788C12.85 6.791 13.707 6.899 14.53 7.115C16.464 5.836 17.285 6.101 17.285 6.101C17.834 7.529 17.492 8.526 17.386 8.778C17.949 9.488 18.336 10.396 18.336 11.504C18.336 15.286 16.02 16.107 13.82 16.31C14.19 16.565 14.522 17.071 14.522 17.845C14.522 18.956 14.51 20.691 14.51 21.015C14.51 21.278 14.668 21.581 15.176 21.486C19.135 20.163 22 16.415 22 12C22 6.477 17.523 2 12 2Z" fill="#24292F"/>
</svg>
