<?xml version="1.0" encoding="UTF-8"?>
<svg version="1.1" xmlns="http://www.w3.org/2000/svg" width="200" height="200">
<path d="M0 0 C66 0 132 0 200 0 C200 66 200 132 200 200 C134 200 68 200 0 200 C0 134 0 68 0 0 Z " fill="#FDFEFE" transform="translate(0,0)"/>
<path d="M0 0 C0 0.99 0 1.98 0 3 C-1.2065625 3.37125 -1.2065625 3.37125 -2.4375 3.75 C-3.7059375 4.36875 -3.7059375 4.36875 -5 5 C-5.33 6.32 -5.66 7.64 -6 9 C-2.7 9 0.6 9 4 9 C4 7.35 4 5.7 4 4 C5.32 4 6.64 4 8 4 C8 5.65 8 7.3 8 9 C9.32 9 10.64 9 12 9 C12 9.99 12 10.98 12 12 C10.68 12 9.36 12 8 12 C8.33 16.95 8.66 21.9 9 27 C10.32 27.33 11.64 27.66 13 28 C14 32.875 14 32.875 14 34 C15.27617187 33.98839844 16.55234375 33.97679687 17.8671875 33.96484375 C19.53645687 33.95546583 21.20572783 33.94636563 22.875 33.9375 C23.71675781 33.92912109 24.55851562 33.92074219 25.42578125 33.91210938 C26.23144531 33.90888672 27.03710938 33.90566406 27.8671875 33.90234375 C28.61081543 33.89710693 29.35444336 33.89187012 30.12060547 33.88647461 C32 34 32 34 34 35 C33.505 35.99 33.505 35.99 33 37 C31.68 36.67 30.36 36.34 29 36 C30.25541557 38.51083114 31.50063488 38.87125446 34 40 C34.042721 41.66611905 34.04063832 43.33382885 34 45 C33.67 45.33 33.34 45.66 33 46 C30.83067876 45.9358534 28.66328277 45.79900318 26.5 45.625 C25.3140625 45.53476563 24.128125 45.44453125 22.90625 45.3515625 C20 45 20 45 19 44 C18.63239269 41.67182036 18.29758419 39.3381615 18 37 C17.67 39.64 17.34 42.28 17 45 C8.96498906 45.63019694 8.96498906 45.63019694 4.9375 43 C4.298125 42.34 3.65875 41.68 3 41 C2.67 41.99 2.34 42.98 2 44 C-0.3125 44.625 -0.3125 44.625 -3 45 C-3.99 44.34 -4.98 43.68 -6 43 C-6.25660094 39.92078868 -6.39431504 37.78863007 -5 35 C-5.66 35 -6.32 35 -7 35 C-7 33.68 -7 32.36 -7 31 C-7.99 31 -8.98 31 -10 31 C-10 24.73 -10 18.46 -10 12 C-10.99 12 -11.98 12 -13 12 C-13 11.01 -13 10.02 -13 9 C-11.68 9 -10.36 9 -9 9 C-9.061875 8.071875 -9.12375 7.14375 -9.1875 6.1875 C-9 3 -9 3 -7.875 1.125 C-5.21965017 -0.4682099 -3.03210482 -0.20214032 0 0 Z " fill="#F2F6F6" transform="translate(157,69)"/>
<path d="M0 0 C4.03748531 2.0935109 6.35107136 3.76542739 8 8 C8.34050529 12.88057582 7.66327491 16.18366164 4.5625 20 C1.23684049 22.59563669 -0.18055225 23.1944447 -4.3125 22.875 C-7.70399962 22.42716913 -9.05960446 21.9602637 -12 20 C-14.63597788 16.04603318 -15.44212405 12.73823507 -15 8 C-11.56460557 1.2519038 -7.5339024 -1.16782608 0 0 Z " fill="#5A9AB7" transform="translate(72,79)"/>
<path d="M0 0 C1.32 0.33 2.64 0.66 4 1 C6.00946222 0.72949547 8.01354224 0.40632091 10 0 C10 0.99 10 1.98 10 3 C8.35 3.66 6.7 4.32 5 5 C4.67 10.28 4.34 15.56 4 21 C4.66 21.33 5.32 21.66 6 22 C5.67 22.66 5.34 23.32 5 24 C4.34 24 3.68 24 3 24 C3 25.98 3 27.96 3 30 C4.65 30 6.3 30 8 30 C8 28.35 8 26.7 8 25 C9.98 25 11.96 25 14 25 C15.32 27.31 16.64 29.62 18 32 C18.33 30.02 18.66 28.04 19 26 C19.33 26 19.66 26 20 26 C20 28.97 20 31.94 20 35 C16 33 16 33 14 30 C13.67 31.65 13.34 33.3 13 35 C9.23699626 36.25433458 5.72789091 36.10695422 1.8125 36.0625 C1.06291016 36.05798828 0.31332031 36.05347656 -0.45898438 36.04882812 C-2.30602383 36.03706354 -4.15302213 36.01912865 -6 36 C-6.66 34.68 -7.32 33.36 -8 32 C-9.98 32 -11.96 32 -14 32 C-14 32.66 -14 33.32 -14 34 C-12.68 34 -11.36 34 -10 34 C-10 34.66 -10 35.32 -10 36 C-11.98 36 -13.96 36 -16 36 C-16 32.37 -16 28.74 -16 25 C-14.02 25 -12.04 25 -10 25 C-10 25.66 -10 26.32 -10 27 C-9.278125 26.67 -8.55625 26.34 -7.8125 26 C-5 25 -5 25 0 25 C0 16.75 0 8.5 0 0 Z " fill="#DDEBEB" transform="translate(110,78)"/>
<path d="M0 0 C3.00839318 2.0482677 4.63349538 3.52030597 5.5234375 7.11328125 C5.77998892 9.0651522 5.90002784 11.03388088 6 13 C0.72 13 -4.56 13 -10 13 C-9.01 14.32 -8.02 15.64 -7 17 C-4.03164137 17.48407934 -4.03164137 17.48407934 -0.8125 17.25 C0.27417969 17.21390625 1.36085938 17.1778125 2.48046875 17.140625 C3.31191406 17.09421875 4.14335938 17.0478125 5 17 C4.6328125 18.921875 4.6328125 18.921875 4 21 C0.09746926 23.29560632 -3.5563877 23.54570677 -8 23 C-11.47449022 20.97904372 -13.70394549 18.88816354 -15 15 C-15.53832527 9.29375217 -14.61757835 6.4444534 -11 2 C-7.30760278 -0.46159814 -4.28452638 -0.79343081 0 0 Z " fill="#5A9CB8" transform="translate(48,79)"/>
<path d="M0 0 C1.06412109 0.00515625 2.12824219 0.0103125 3.22460938 0.015625 C4.33513672 0.03625 5.44566406 0.056875 6.58984375 0.078125 C7.70423828 0.08328125 8.81863281 0.0884375 9.96679688 0.09375 C18.21872826 0.17381725 18.21872826 0.17381725 20.52734375 1.328125 C20.19734375 1.988125 19.86734375 2.648125 19.52734375 3.328125 C18.20734375 2.998125 16.88734375 2.668125 15.52734375 2.328125 C16.78275932 4.83895614 18.02797863 5.19937946 20.52734375 6.328125 C20.57006475 7.99424405 20.56798207 9.66195385 20.52734375 11.328125 C20.19734375 11.658125 19.86734375 11.988125 19.52734375 12.328125 C17.35802251 12.2639784 15.19062652 12.12712818 13.02734375 11.953125 C11.84140625 11.86289063 10.65546875 11.77265625 9.43359375 11.6796875 C6.52734375 11.328125 6.52734375 11.328125 5.52734375 10.328125 C5.15973644 7.99994536 4.82492794 5.6662865 4.52734375 3.328125 C4.19734375 5.968125 3.86734375 8.608125 3.52734375 11.328125 C2.09078521 11.40943963 0.65289545 11.46746059 -0.78515625 11.515625 C-1.98591797 11.56783203 -1.98591797 11.56783203 -3.2109375 11.62109375 C-5.47265625 11.328125 -5.47265625 11.328125 -7.2421875 9.97265625 C-8.47265625 8.328125 -8.47265625 8.328125 -8.84765625 5.828125 C-8.04702523 0.49058484 -4.91382995 -0.04700291 0 0 Z " fill="#8ACAD4" transform="translate(170.47265625,102.671875)"/>
<path d="M0 0 C1.32 0 2.64 0 4 0 C4.33 3.96 4.66 7.92 5 12 C8.63 8.04 12.26 4.08 16 0 C17.32 0.33 18.64 0.66 20 1 C17.03 4.63 14.06 8.26 11 12 C13.59473495 16.32455824 16.32487846 20.01767674 19.4765625 23.9140625 C21 26 21 26 22 29 C19.80078125 29.375 19.80078125 29.375 17 29 C15.13548243 27.00801938 13.69707209 25.23044928 12.1875 23 C11.78080078 22.42765625 11.37410156 21.8553125 10.95507812 21.265625 C9.95525768 19.85411379 8.97561378 18.42834959 8 17 C7.01 17.33 6.02 17.66 5 18 C4.67 21.63 4.34 25.26 4 29 C2.68 29 1.36 29 0 29 C0 19.43 0 9.86 0 0 Z " fill="#7E7E7E" transform="translate(85,71)"/>
<path d="M0 0 C3.14863381 0.71312628 4.18817722 1.81537552 6.03515625 4.4609375 C6.51478994 7.39538637 6.41292075 10.24778383 6.28515625 13.2109375 C6.26710937 14.00371094 6.2490625 14.79648438 6.23046875 15.61328125 C6.18348707 17.56302098 6.11174669 19.51213628 6.03515625 21.4609375 C3.95517799 21.7374664 1.87082545 21.98123825 -0.21484375 22.2109375 C-1.375 22.35015625 -2.53515625 22.489375 -3.73046875 22.6328125 C-6.96484375 22.4609375 -6.96484375 22.4609375 -9.390625 20.703125 C-10.96484375 18.4609375 -10.96484375 18.4609375 -10.90234375 14.8359375 C-9.96484375 11.4609375 -9.96484375 11.4609375 -6.96484375 9.4609375 C-4.703125 9.265625 -4.703125 9.265625 -2.27734375 9.3359375 C-1.06498047 9.36300781 -1.06498047 9.36300781 0.171875 9.390625 C1.09419922 9.42542969 1.09419922 9.42542969 2.03515625 9.4609375 C1.70515625 7.8109375 1.37515625 6.1609375 1.03515625 4.4609375 C-1.27484375 4.4609375 -3.58484375 4.4609375 -5.96484375 4.4609375 C-6.29484375 5.1209375 -6.62484375 5.7809375 -6.96484375 6.4609375 C-7.95484375 6.4609375 -8.94484375 6.4609375 -9.96484375 6.4609375 C-9.65234375 4.5859375 -9.65234375 4.5859375 -8.96484375 2.4609375 C-5.75047846 0.31802731 -3.79057766 0.16067959 0 0 Z " fill="#79797A" transform="translate(133.96484375,77.5390625)"/>
<path d="M0 0 C3.61497739 1.47158371 5.40591511 3.41462331 7.75 6.5 C8.36359375 7.2940625 8.9771875 8.088125 9.609375 8.90625 C11 11 11 11 11 13 C13.97 13.495 13.97 13.495 17 14 C17 14.66 17 15.32 17 16 C14.09399739 17.25664978 12.20395416 18 9 18 C9 17.34 9 16.68 9 16 C7.02 16 5.04 16 3 16 C3 19.63 3 23.26 3 27 C0.33333333 27 -2.33333333 27 -5 27 C-5.2165625 25.39125 -5.2165625 25.39125 -5.4375 23.75 C-5.83749442 21.08337051 -6.27591924 18.58600271 -7 16 C-5.02 15.67 -3.04 15.34 -1 15 C-1.33 14.67 -1.66 14.34 -2 14 C-2.12514928 12.02380553 -2.1757276 10.04261827 -2.1875 8.0625 C-2.20167969 6.98097656 -2.21585937 5.89945312 -2.23046875 4.78515625 C-2 2 -2 2 0 0 Z " fill="#F1FAFB" transform="translate(91,87)"/>
<path d="M0 0 C1.32 0 2.64 0 4 0 C4 7.92 4 15.84 4 24 C8.29 24 12.58 24 17 24 C17.33 24.99 17.66 25.98 18 27 C17.67 27.66 17.34 28.32 17 29 C11.39 29 5.78 29 0 29 C-1.35048039 26.29903923 -1.12963577 24.17273483 -1.1328125 21.15234375 C-1.13410156 19.99025391 -1.13539062 18.82816406 -1.13671875 17.63085938 C-1.13285156 16.41205078 -1.12898437 15.19324219 -1.125 13.9375 C-1.12886719 12.71482422 -1.13273438 11.49214844 -1.13671875 10.23242188 C-1.13542969 9.07162109 -1.13414063 7.91082031 -1.1328125 6.71484375 C-1.13168457 5.64355225 -1.13055664 4.57226074 -1.12939453 3.46850586 C-1 1 -1 1 0 0 Z " fill="#6BA1BA" transform="translate(12,73)"/>
<path d="M0 0 C3.5 0.5 3.5 0.5 5.5 2.0625 C6.91970326 5.52302669 6.36301515 7.91516784 5.5 11.5 C3.5 13.5 3.5 13.5 0.0625 13.8125 C-3.5 13.5 -3.5 13.5 -5.4375 12.375 C-7.01108304 9.59808875 -6.88420899 7.63770673 -6.5 4.5 C-4.87055931 0.85772081 -4.00024745 0.57146392 0 0 Z " fill="#F3FAFC" transform="translate(68.5,83.5)"/>
<path d="M0 0 C1.32 0 2.64 0 4 0 C4 1.65 4 3.3 4 5 C5.32 5 6.64 5 8 5 C8 5.99 8 6.98 8 8 C6.68 8 5.36 8 4 8 C4.33 12.95 4.66 17.9 5 23 C5.99 23.33 6.98 23.66 8 24 C8 24.99 8 25.98 8 27 C5.125 27.1875 5.125 27.1875 2 27 C-0.52775351 23.20836973 -0.22443035 20.19125969 -0.125 15.8125 C-0.11597656 15.06291016 -0.10695312 14.31332031 -0.09765625 13.54101562 C-0.07412578 11.69387346 -0.03825561 9.84689588 0 8 C-1.32 8 -2.64 8 -4 8 C-4 7.01 -4 6.02 -4 5 C-2.68 5 -1.36 5 0 5 C0 3.35 0 1.7 0 0 Z " fill="#7D7F7E" transform="translate(161,73)"/>
<path d="M0 0 C0.90105469 0.11988281 1.80210937 0.23976563 2.73046875 0.36328125 C3.41753906 0.47027344 4.10460937 0.57726562 4.8125 0.6875 C4.8125 3.3275 4.8125 5.9675 4.8125 8.6875 C6.1325 8.6875 7.4525 8.6875 8.8125 8.6875 C8.8125 9.3475 8.8125 10.0075 8.8125 10.6875 C3.8625 11.0175 -1.0875 11.3475 -6.1875 11.6875 C-8.05580571 7.95088858 -8.695719 6.65160824 -8.1875 2.6875 C-5.76897668 -0.69527118 -3.95983833 -0.56569119 0 0 Z " fill="#90CFD5" transform="translate(140.1875,103.3125)"/>
<path d="M0 0 C0 0.99 0 1.98 0 3 C-1.2065625 3.37125 -1.2065625 3.37125 -2.4375 3.75 C-5.171081 4.72238859 -5.171081 4.72238859 -5.8125 7.125 C-5.874375 7.74375 -5.93625 8.3625 -6 9 C-4.35 9 -2.7 9 -1 9 C-1 9.99 -1 10.98 -1 12 C-2.65 12 -4.3 12 -6 12 C-6 17.94 -6 23.88 -6 30 C-6.99 30 -7.98 30 -9 30 C-9 24.06 -9 18.12 -9 12 C-10.32 12 -11.64 12 -13 12 C-13 11.01 -13 10.02 -13 9 C-11.68 9 -10.36 9 -9 9 C-9.061875 8.071875 -9.12375 7.14375 -9.1875 6.1875 C-9 3 -9 3 -7.875 1.125 C-5.21965017 -0.4682099 -3.03210482 -0.20214032 0 0 Z " fill="#7B7B7B" transform="translate(157,69)"/>
<path d="M0 0 C0 0.66 0 1.32 0 2 C-0.66 2 -1.32 2 -2 2 C-1.505 2.7425 -1.01 3.485 -0.5 4.25 C1.11820558 7.21671024 1 8.59393718 1 12 C-3.62 12 -8.24 12 -13 12 C-13.60377358 4.75471698 -13.60377358 4.75471698 -11 1.5 C-7.01367043 -0.49316478 -4.41916048 -0.2996041 0 0 Z " fill="#4998B9" transform="translate(48,79)"/>
<path d="M0 0 C5.75 -0.125 5.75 -0.125 8 1 C7.67 1.66 7.34 2.32 7 3 C5.68 2.67 4.36 2.34 3 2 C4.25541557 4.51083114 5.50063488 4.87125446 8 6 C8.042721 7.66611905 8.04063832 9.33382885 8 11 C7 12 7 12 3.9375 12.0625 C2.968125 12.041875 1.99875 12.02125 1 12 C0.67 11.01 0.34 10.02 0 9 C-1.65 9 -3.3 9 -5 9 C-5 6.69 -5 4.38 -5 2 C-3.35 2 -1.7 2 0 2 C0 1.34 0 0.68 0 0 Z " fill="#E1FEFD" transform="translate(183,103)"/>
<path d="M0 0 C1.98 0 3.96 0 6 0 C6 0.66 6 1.32 6 2 C6.7425 1.649375 7.485 1.29875 8.25 0.9375 C11.1322726 -0.04509293 12.21176345 -0.0326802 15 1 C15 1.33 15 1.66 15 2 C13.35 2.33 11.7 2.66 10 3 C10 4.65 10 6.3 10 8 C12.97 8.495 12.97 8.495 16 9 C15.34 9.66 14.68 10.32 14 11 C11.375 10.625 11.375 10.625 9 10 C8.67 9.01 8.34 8.02 8 7 C6.02 7 4.04 7 2 7 C2 7.66 2 8.32 2 9 C3.32 9 4.64 9 6 9 C6 9.66 6 10.32 6 11 C4.02 11 2.04 11 0 11 C0 7.37 0 3.74 0 0 Z " fill="#85C7CE" transform="translate(94,103)"/>
<path d="M0 0 C1.98 0 3.96 0 6 0 C7.32 2.31 8.64 4.62 10 7 C10.33 5.02 10.66 3.04 11 1 C11.33 1 11.66 1 12 1 C12 3.97 12 6.94 12 10 C8 8 8 8 6 5 C5.67 6.65 5.34 8.3 5 10 C3.35 10.33 1.7 10.66 0 11 C0 9.35 0 7.7 0 6 C-1.65 6 -3.3 6 -5 6 C-5 7.32 -5 8.64 -5 10 C-5.66 10 -6.32 10 -7 10 C-7 7.03 -7 4.06 -7 1 C-6.34 1 -5.68 1 -5 1 C-5 2.32 -5 3.64 -5 5 C-3.35 5 -1.7 5 0 5 C0 3.35 0 1.7 0 0 Z " fill="#88CAD2" transform="translate(118,103)"/>
<path d="M0 0 C0.33 0.99 0.66 1.98 1 3 C0.01 3 -0.98 3 -2 3 C-1.34 4.32 -0.68 5.64 0 7 C-0.78375 6.95875 -1.5675 6.9175 -2.375 6.875 C-5.16116119 6.71271266 -5.16116119 6.71271266 -7 9 C-7.16677282 12.58343976 -7.16677282 12.58343976 -7 16 C-8.98 16.33 -10.96 16.66 -13 17 C-13 16.01 -13 15.02 -13 14 C-12.01 14.66 -11.02 15.32 -10 16 C-11.98 13.36 -13.96 10.72 -16 8 C-15.01 8 -14.02 8 -13 8 C-12.5875 7.21625 -12.175 6.4325 -11.75 5.625 C-10 3 -10 3 -6.5 1.625 C-3 1 -3 1 0 2 C0 1.34 0 0.68 0 0 Z " fill="#D8F7F9" transform="translate(140,97)"/>
<path d="M0 0 C1.32 0.33 2.64 0.66 4 1 C6.00946222 0.72949547 8.01354224 0.40632091 10 0 C10 0.99 10 1.98 10 3 C8.7934375 3.4640625 8.7934375 3.4640625 7.5625 3.9375 C5.10919595 4.76335345 5.10919595 4.76335345 4 6 C3.76346477 8.52596259 3.57826308 11.03107207 3.4375 13.5625 C3.39431641 14.27341797 3.35113281 14.98433594 3.30664062 15.71679688 C3.20028223 17.47761912 3.09961154 19.2387832 3 21 C2.01 21 1.02 21 0 21 C0 14.07 0 7.14 0 0 Z " fill="#757474" transform="translate(110,78)"/>
<path d="M0 0 C2.475 0.495 2.475 0.495 5 1 C4.67 3.31 4.34 5.62 4 8 C3.01 7.67 2.02 7.34 1 7 C0.67 4.69 0.34 2.38 0 0 Z M-15 7 C-9.72 7 -4.44 7 1 7 C0.34 8.32 -0.32 9.64 -1 11 C-4.74536535 12.24845512 -8.08083924 12.47356526 -12 12 C-14 10.625 -14 10.625 -15 9 C-15 8.34 -15 7.68 -15 7 Z " fill="#DCF3F9" transform="translate(53,85)"/>
<path d="M0 0 C2.375 0.75 2.375 0.75 3.375 1.75 C3.625 5.1875 3.625 5.1875 3.375 8.75 C0.375 10.75 0.375 10.75 -2.25 10.4375 C-4.625 9.75 -4.625 9.75 -5.625 8.75 C-6.08191383 3.49549098 -6.08191383 3.49549098 -4.4375 0.8125 C-2.625 -0.25 -2.625 -0.25 0 0 Z " fill="#61AEBA" transform="translate(156.625,103.25)"/>
<path d="M0 0 C0.33 0 0.66 0 1 0 C1.03758423 0.94637329 1.03758423 0.94637329 1.07592773 1.91186523 C1.19154137 4.75396825 1.31442316 7.59571083 1.4375 10.4375 C1.47681641 11.43072266 1.51613281 12.42394531 1.55664062 13.44726562 C1.59853516 14.39150391 1.64042969 15.33574219 1.68359375 16.30859375 C1.72025146 17.18314209 1.75690918 18.05769043 1.79467773 18.95874023 C1.78181066 20.9927402 1.78181066 20.9927402 3 22 C4.84891946 22.23363881 6.70488031 22.41303635 8.5625 22.5625 C9.57441406 22.64628906 10.58632813 22.73007813 11.62890625 22.81640625 C12.80259766 22.90728516 12.80259766 22.90728516 14 23 C13.67 23.99 13.34 24.98 13 26 C10.8537974 25.85970581 8.70803782 25.71261836 6.5625 25.5625 C5.36753906 25.48128906 4.17257813 25.40007812 2.94140625 25.31640625 C-0 25 -0 25 -1 24 C-1.09888535 22.55869931 -1.13079377 21.11265623 -1.1328125 19.66796875 C-1.13410156 18.78689453 -1.13539062 17.90582031 -1.13671875 16.99804688 C-1.13285156 16.07056641 -1.12898437 15.14308594 -1.125 14.1875 C-1.12886719 13.27162109 -1.13273438 12.35574219 -1.13671875 11.41210938 C-1.13542969 10.52716797 -1.13414063 9.64222656 -1.1328125 8.73046875 C-1.13168457 7.91989014 -1.13055664 7.10931152 -1.12939453 6.27416992 C-1.00327761 4.05760549 -0.61399667 2.12825756 0 0 Z " fill="#4C97BA" transform="translate(14,75)"/>
<path d="M0 0 C1.670625 0.061875 1.670625 0.061875 3.375 0.125 C3.5625 3 3.5625 3 3.375 6.125 C0.375 8.125 0.375 8.125 -2.3125 7.75 C-3.075625 7.54375 -3.83875 7.3375 -4.625 7.125 C-5.25 4.75 -5.25 4.75 -5.625 2.125 C-3.625 0.125 -3.625 0.125 0 0 Z " fill="#F4F3F4" transform="translate(132.625,88.875)"/>
<path d="M0 0 C0.86625 0.37125 0.86625 0.37125 1.75 0.75 C1.09 0.75 0.43 0.75 -0.25 0.75 C-1.01173392 5.0664922 -1.41063604 8.49433453 -0.25 12.75 C-2.725 11.76 -2.725 11.76 -5.25 10.75 C-6 7.5 -6 7.5 -6.25 3.75 C-3.45930233 -0.38436693 -3.45930233 -0.38436693 0 0 Z " fill="#818181" transform="translate(129.25,87.25)"/>
<path d="M0 0 C0.33 0 0.66 0 1 0 C1.92092281 4.65537356 2.12205997 9.14685433 2.0625 13.875 C2.05798828 14.56335938 2.05347656 15.25171875 2.04882812 15.9609375 C2.03716336 17.64066335 2.01923271 19.32034375 2 21 C5.3 21.33 8.6 21.66 12 22 C12 22.33 12 22.66 12 23 C8.04 23 4.08 23 0 23 C0 15.41 0 7.82 0 0 Z " fill="#C3E2EB" transform="translate(16,74)"/>
<path d="M0 0 C0.598125 0.78375 1.19625 1.5675 1.8125 2.375 C3.91085249 5.14574323 3.91085249 5.14574323 7 7 C11.17300608 7.23183367 14.94020228 6.98419339 19 6 C17.27778897 8.14005895 16.42104781 8.93462864 13.66015625 9.36328125 C12.80292969 9.34652344 11.94570313 9.32976562 11.0625 9.3125 C10.20785156 9.30863281 9.35320313 9.30476563 8.47265625 9.30078125 C6 9 6 9 3.87109375 7.91796875 C1.85636299 6.65801656 1.85636299 6.65801656 -1 8 C-1.99 8 -2.98 8 -4 8 C-3.625 6.0625 -3.625 6.0625 -3 4 C-2.34 3.67 -1.68 3.34 -1 3 C-0.67 2.01 -0.34 1.02 0 0 Z " fill="#E9F8FA" transform="translate(33,94)"/>
<path d="M0 0 C3.80097811 0.54299687 5.57457897 2.07276772 8 5 C8.75 7.25 8.75 7.25 9 9 C8.443125 8.814375 7.88625 8.62875 7.3125 8.4375 C4.600867 7.92448835 2.65628961 8.3359276 0 9 C0 7.68 0 6.36 0 5 C0.99 5 1.98 5 3 5 C3 4.34 3 3.68 3 3 C2.01 2.67 1.02 2.34 0 2 C0 1.34 0 0.68 0 0 Z " fill="#7DA4B3" transform="translate(167,68)"/>
<path d="M0 0 C0.99 0.495 0.99 0.495 2 1 C2 2.32 2 3.64 2 5 C3.98 5 5.96 5 8 5 C8 5.66 8 6.32 8 7 C8.66 7 9.32 7 10 7 C10 5.68 10 4.36 10 3 C11.65 3 13.3 3 15 3 C15 4.65 15 6.3 15 8 C13.41705218 8.05437607 11.83355744 8.09296271 10.25 8.125 C9.36828125 8.14820312 8.4865625 8.17140625 7.578125 8.1953125 C4.51412782 7.9631915 2.20214146 7.20214146 0 5 C-0.04063832 3.33382885 -0.042721 1.66611905 0 0 Z " fill="#D4F9FA" transform="translate(103,106)"/>
<path d="M0 0 C0.33 0 0.66 0 1 0 C1 5.61 1 11.22 1 17 C0.01 17 -0.98 17 -2 17 C-2 12.05 -2 7.1 -2 2 C-1.34 2 -0.68 2 0 2 C0 1.34 0 0.68 0 0 Z " fill="#727273" transform="translate(150,82)"/>
<path d="M0 0 C2.31 0 4.62 0 7 0 C7 0.66 7 1.32 7 2 C5.35 2 3.7 2 2 2 C2 2.99 2 3.98 2 5 C3.32 5.33 4.64 5.66 6 6 C4.68 6 3.36 6 2 6 C2 6.99 2 7.98 2 9 C3.65 9 5.3 9 7 9 C7 9.66 7 10.32 7 11 C5.00045254 11.04254356 2.99958364 11.04080783 1 11 C0 10 0 10 -0.09765625 7.71484375 C-0.08605469 6.79832031 -0.07445312 5.88179688 -0.0625 4.9375 C-0.05347656 4.01839844 -0.04445312 3.09929687 -0.03515625 2.15234375 C-0.02355469 1.44207031 -0.01195312 0.73179688 0 0 Z " fill="#6FBAC6" transform="translate(176,103)"/>
<path d="M0 0 C4.62 0 9.24 0 14 0 C13.34 1.98 12.68 3.96 12 6 C11.67 5.34 11.34 4.68 11 4 C9.741875 4 8.48375 4 7.1875 4 C4.79166667 4 2.39583333 4 0 4 C0 2.68 0 1.36 0 0 Z " fill="#B2B7BB" transform="translate(43,125)"/>
<path d="M0 0 C1.65 0 3.3 0 5 0 C5.38133299 1.9914056 5.71325582 3.99279077 6 6 C5 7 5 7 2.4375 7.0625 C1.2309375 7.0315625 1.2309375 7.0315625 0 7 C-1.125 2.25 -1.125 2.25 0 0 Z " fill="#DAF9FA" transform="translate(134,105)"/>
<path d="M0 0 C3.33265271 0 5.40329578 0.49024071 7.95703125 2.671875 C12.93392321 8.06435264 12.93392321 8.06435264 13.1953125 11.765625 C13.13085938 12.50296875 13.06640625 13.2403125 13 14 C12.01 13.67 11.02 13.34 10 13 C9.6596875 11.3603125 9.6596875 11.3603125 9.3125 9.6875 C7.8673204 5.62723352 7.51411113 5.340484 3.875 3.5625 C2.59335952 3.01746072 1.30429389 2.4883519 0 2 C0 1.34 0 0.68 0 0 Z " fill="#B8B8B8" transform="translate(167,64)"/>
<path d="M0 0 C1.67542976 0.28604898 3.34385343 0.61781233 5 1 C4.67 1.66 4.34 2.32 4 3 C2.68 2.67 1.36 2.34 0 2 C1.25541557 4.51083114 2.50063488 4.87125446 5 6 C5 7.32 5 8.64 5 10 C3.02 10.33 1.04 10.66 -1 11 C-1 10.01 -1 9.02 -1 8 C0.98 8.495 0.98 8.495 3 9 C1.74458443 6.48916886 0.49936512 6.12874554 -2 5 C-1.125 1.125 -1.125 1.125 0 0 Z " fill="#6DB7BE" transform="translate(186,103)"/>
<path d="M0 0 C1.32 0 2.64 0 4 0 C4.33 1.98 4.66 3.96 5 6 C2.625 6.625 2.625 6.625 0 7 C-0.66 6.34 -1.32 5.68 -2 5 C-1.46428571 1.46428571 -1.46428571 1.46428571 0 0 Z " fill="#DCFBFB" transform="translate(154,105)"/>
<path d="M0 0 C4.03810445 1.34603482 5.47295076 3.65336723 8 7 C8 7.66 8 8.32 8 9 C5.8125 9.5 5.8125 9.5 3 9 C0.98728161 6.51946058 -0.51887086 3.82359938 -2 1 C-1.34 0.67 -0.68 0.34 0 0 Z " fill="#878586" transform="translate(99,91)"/>
<path d="M0 0 C3.63 0 7.26 0 11 0 C10.67 1.65 10.34 3.3 10 5 C7.125 5.125 7.125 5.125 4 5 C3.34 4.34 2.68 3.68 2 3 C1.01 3.495 1.01 3.495 0 4 C0 2.68 0 1.36 0 0 Z " fill="#AEB4B8" transform="translate(116,125)"/>
<path d="M0 0 C1.37478516 0.01740234 1.37478516 0.01740234 2.77734375 0.03515625 C3.69644531 0.04417969 4.61554688 0.05320312 5.5625 0.0625 C6.27277344 0.07410156 6.98304687 0.08570312 7.71484375 0.09765625 C8.04484375 1.41765625 8.37484375 2.73765625 8.71484375 4.09765625 C7.39484375 4.09765625 6.07484375 4.09765625 4.71484375 4.09765625 C4.05484375 3.43765625 3.39484375 2.77765625 2.71484375 2.09765625 C2.38484375 2.75765625 2.05484375 3.41765625 1.71484375 4.09765625 C-0.34765625 4.72265625 -0.34765625 4.72265625 -2.28515625 5.09765625 C-2.84765625 3.16015625 -2.84765625 3.16015625 -3.28515625 1.09765625 C-2.28515625 0.09765625 -2.28515625 0.09765625 0 0 Z " fill="#ADB3B7" transform="translate(85.28515625,124.90234375)"/>
<path d="M0 0 C0.33 0.99 0.66 1.98 1 3 C0.01 3 -0.98 3 -2 3 C-1.34 4.32 -0.68 5.64 0 7 C-2.97 7 -5.94 7 -9 7 C-9 5.68 -9 4.36 -9 3 C-3.375 0.875 -3.375 0.875 0 2 C0 1.34 0 0.68 0 0 Z " fill="#E9EFEC" transform="translate(140,97)"/>
<path d="M0 0 C0.33 0 0.66 0 1 0 C1.33 4.95 1.66 9.9 2 15 C2.99 15.33 3.98 15.66 5 16 C5 16.99 5 17.98 5 19 C3.02 19 1.04 19 -1 19 C-1 15.0626168 -0.77448053 11.17432981 -0.5 7.25 C-0.45230469 6.55261719 -0.40460938 5.85523437 -0.35546875 5.13671875 C-0.23818637 3.42439605 -0.11925676 1.71218632 0 0 Z " fill="#848585" transform="translate(164,81)"/>
<path d="M0 0 C2.31 0 4.62 0 7 0 C7.66 1.32 8.32 2.64 9 4 C5.37 4 1.74 4 -2 4 C-1.34 2.68 -0.68 1.36 0 0 Z " fill="#DBF6FB" transform="translate(40,84)"/>
<path d="M0 0 C2.33944736 0.28730055 4.6739143 0.61936779 7 1 C7 2.32 7 3.64 7 5 C4.69 5.33 2.38 5.66 0 6 C-0.38218767 4.34385343 -0.71395102 2.67542976 -1 1 C-0.67 0.67 -0.34 0.34 0 0 Z " fill="#BFC5C7" transform="translate(108,124)"/>
<path d="M0 0 C0.66 0 1.32 0 2 0 C2 2 2 2 0.5 3.625 C0.005 4.07875 -0.49 4.5325 -1 5 C-0.01 5.33 0.98 5.66 2 6 C1.34 6.66 0.68 7.32 0 8 C-0.99 7.67 -1.98 7.34 -3 7 C-3 9.97 -3 12.94 -3 16 C-5.35620437 12.46569344 -5.48991613 11.16428713 -5 7 C-3.49987532 4.4352707 -2.10816535 2.10816535 0 0 Z " fill="#66A2B8" transform="translate(62,80)"/>
<path d="M0 0 C1.33333333 0.66666667 2.66666667 1.33333333 4 2 C4 2.66 4 3.32 4 4 C4.66 4 5.32 4 6 4 C6.66 2.68 7.32 1.36 8 0 C8.33 0 8.66 0 9 0 C9 1.98 9 3.96 9 6 C6.03 6 3.06 6 0 6 C-0.38218767 4.34385343 -0.71395102 2.67542976 -1 1 C-0.67 0.67 -0.34 0.34 0 0 Z " fill="#ACB2B7" transform="translate(33,124)"/>
<path d="M0 0 C0.66 1.32 1.32 2.64 2 4 C2.66 4 3.32 4 4 4 C4 3.01 4 2.02 4 1 C5.65 0.67 7.3 0.34 9 0 C9 1.65 9 3.3 9 5 C2.25 6.125 2.25 6.125 0 5 C0 3.35 0 1.7 0 0 Z " fill="#ABB2B5" transform="translate(72,124)"/>
<path d="M0 0 C1.134375 0.020625 2.26875 0.04125 3.4375 0.0625 C3.4375 0.7225 3.4375 1.3825 3.4375 2.0625 C2.1175 2.0625 0.7975 2.0625 -0.5625 2.0625 C-0.5625 2.7225 -0.5625 3.3825 -0.5625 4.0625 C0.0975 4.0625 0.7575 4.0625 1.4375 4.0625 C1.4375 4.7225 1.4375 5.3825 1.4375 6.0625 C-0.2125 5.7325 -1.8625 5.4025 -3.5625 5.0625 C-4.125 3.125 -4.125 3.125 -4.5625 1.0625 C-3.5625 0.0625 -3.5625 0.0625 0 0 Z " fill="#DDFAFC" transform="translate(167.5625,105.9375)"/>
<path d="M0 0 C0.66 0 1.32 0 2 0 C2 1.32 2 2.64 2 4 C3.65 4 5.3 4 7 4 C7.33 2.68 7.66 1.36 8 0 C8 2.97 8 5.94 8 9 C7.67 7.68 7.34 6.36 7 5 C5.35 5 3.7 5 2 5 C2 6.32 2 7.64 2 9 C1.34 9 0.68 9 0 9 C0 6.03 0 3.06 0 0 Z " fill="#5BA4AF" transform="translate(111,104)"/>
<path d="M0 0 C2.64 0 5.28 0 8 0 C8 0.66 8 1.32 8 2 C7.01 2 6.02 2 5 2 C5 4.64 5 7.28 5 10 C4.34 10 3.68 10 3 10 C3 7.36 3 4.72 3 2 C2.01 2 1.02 2 0 2 C0 1.34 0 0.68 0 0 Z " fill="#78B5BC" transform="translate(84,103)"/>
<path d="M0 0 C3.63 0 7.26 0 11 0 C10.67 0.66 10.34 1.32 10 2 C9.01 2 8.02 2 7 2 C7 2.66 7 3.32 7 4 C5.35 4 3.7 4 2 4 C1.34 2.68 0.68 1.36 0 0 Z " fill="#F4FDFE" transform="translate(39,93)"/>
<path d="M0 0 C0.66 0.66 1.32 1.32 2 2 C2.33 1.34 2.66 0.68 3 0 C4.98 0 6.96 0 9 0 C8.01 0.495 8.01 0.495 7 1 C7 2.32 7 3.64 7 5 C4.69 5 2.38 5 0 5 C0 3.35 0 1.7 0 0 Z " fill="#A9AFB3" transform="translate(130,125)"/>
<path d="M0 0 C0.99 0.33 1.98 0.66 3 1 C3.99 1 4.98 1 6 1 C6.33 2.32 6.66 3.64 7 5 C4.36 5.33 1.72 5.66 -1 6 C-1 2 -1 2 0 0 Z " fill="#ABB3B5" transform="translate(64,124)"/>
<path d="M0 0 C2.64 0 5.28 0 8 0 C8 0.66 8 1.32 8 2 C7.34 2 6.68 2 6 2 C6.33 2.99 6.66 3.98 7 5 C5.35 5 3.7 5 2 5 C2 4.01 2 3.02 2 2 C1.34 2 0.68 2 0 2 C0 1.34 0 0.68 0 0 Z " fill="#6BA1BA" transform="translate(40,79)"/>
<path d="M0 0 C1.65 0 3.3 0 5 0 C5.33 1.65 5.66 3.3 6 5 C4.02 5 2.04 5 0 5 C0 3.35 0 1.7 0 0 Z " fill="#B3B7BC" transform="translate(149,124)"/>
<path d="M0 0 C0.66 0 1.32 0 2 0 C2 2.64 2 5.28 2 8 C3.32 8 4.64 8 6 8 C6 8.66 6 9.32 6 10 C4.33388095 10.042721 2.66617115 10.04063832 1 10 C0 9 0 9 -0.09765625 6.93359375 C-0.08605469 6.10988281 -0.07445312 5.28617187 -0.0625 4.4375 C-0.05347656 3.61121094 -0.04445312 2.78492187 -0.03515625 1.93359375 C-0.02355469 1.29550781 -0.01195312 0.65742187 0 0 Z " fill="#73B5BE" transform="translate(143,104)"/>
<path d="M0 0 C0 2.97 0 5.94 0 9 C-0.99 9.33 -1.98 9.66 -3 10 C-3 7.03 -3 4.06 -3 1 C-1 0 -1 0 0 0 Z " fill="#4A98B6" transform="translate(62,86)"/>
<path d="M0 0 C2.0625 0.4375 2.0625 0.4375 4 1 C4 1.99 4 2.98 4 4 C1.625 5.0625 1.625 5.0625 -1 6 C-1.66 5.67 -2.32 5.34 -3 5 C-1.125 1.125 -1.125 1.125 0 0 Z " fill="#5A9AB8" transform="translate(38,80)"/>
<path d="M0 0 C3.28247841 0.87532757 5.50854152 1.50854152 7.9375 3.9375 C8.288125 4.618125 8.63875 5.29875 9 6 C8.67 6.99 8.34 7.98 8 9 C7.236875 8.21625 6.47375 7.4325 5.6875 6.625 C3.09108195 3.92742283 3.09108195 3.92742283 0 2 C0 1.34 0 0.68 0 0 Z " fill="#E4F1F6" transform="translate(168,66)"/>
<path d="M0 0 C2.875 -0.1875 2.875 -0.1875 6 0 C6.66 0.99 7.32 1.98 8 3 C4.71303767 3.79953138 3.28976808 4.09658936 0 3 C0 2.01 0 1.02 0 0 Z " fill="#4F97B6" transform="translate(41,98)"/>
<path d="M0 0 C2.375 0.3125 2.375 0.3125 5 1 C7.56687367 4.8503105 6.83288724 6.58569763 6 11 C5.67 11 5.34 11 5 11 C4.89042969 10.37351562 4.78085938 9.74703125 4.66796875 9.1015625 C4.43013672 7.87566406 4.43013672 7.87566406 4.1875 6.625 C3.96126953 5.40683594 3.96126953 5.40683594 3.73046875 4.1640625 C3.12455058 1.64179359 3.12455058 1.64179359 0 0 Z " fill="#DEF5FB" transform="translate(68,84)"/>
<path d="M0 0 C1.32 0 2.64 0 4 0 C4 1.98 4 3.96 4 6 C3.01 6 2.02 6 1 6 C0 5 0 5 -0.0625 2.4375 C-0.041875 1.633125 -0.02125 0.82875 0 0 Z " fill="#7F7E7D" transform="translate(161,73)"/>
<path d="M0 0 C0.99 0.66 1.98 1.32 3 2 C2.67 2.99 2.34 3.98 2 5 C0.35 5.33 -1.3 5.66 -3 6 C-3 4.68 -3 3.36 -3 2 C-2.01 2 -1.02 2 0 2 C0 1.34 0 0.68 0 0 Z " fill="#C4D0CF" transform="translate(170,71)"/>
<path d="M0 0 C-0.3125 1.9375 -0.3125 1.9375 -1 4 C-1.99 4.33 -2.98 4.66 -4 5 C-4.99 3.68 -5.98 2.36 -7 1 C-4 0 -4 0 0 0 Z " fill="#629EB7" transform="translate(53,96)"/>
<path d="M0 0 C0.33 0 0.66 0 1 0 C0.88590407 1.45922693 0.75834456 2.91740598 0.625 4.375 C0.55539063 5.18710938 0.48578125 5.99921875 0.4140625 6.8359375 C0 9 0 9 -2 11 C-2 9.68 -2 8.36 -2 7 C-2.99 7.33 -3.98 7.66 -5 8 C-5 7.34 -5 6.68 -5 6 C-4.360625 5.7525 -3.72125 5.505 -3.0625 5.25 C-0.81258459 4.18437567 -0.81258459 4.18437567 -0.25 1.875 C-0.1675 1.25625 -0.085 0.6375 0 0 Z " fill="#69A4BC" transform="translate(79,87)"/>
<path d="M0 0 C0.99 0.33 1.98 0.66 3 1 C1.8125 3 1.8125 3 0 5 C-2.6875 5.25 -2.6875 5.25 -5 5 C-5 4.01 -5 3.02 -5 2 C-3.35 2 -1.7 2 0 2 C0 1.34 0 0.68 0 0 Z " fill="#D6F9FC" transform="translate(183,103)"/>
<path d="M0 0 C2.31 0.33 4.62 0.66 7 1 C7 1.99 7 2.98 7 4 C6.21625 3.814375 5.4325 3.62875 4.625 3.4375 C2.02910225 2.74037734 2.02910225 2.74037734 0 4 C0 2.68 0 1.36 0 0 Z " fill="#8B9298" transform="translate(43,125)"/>
<path d="M0 0 C1.98 0 3.96 0 6 0 C6.66 1.32 7.32 2.64 8 4 C6.68 4 5.36 4 4 4 C4 3.34 4 2.68 4 2 C2.68 2 1.36 2 0 2 C0 1.34 0 0.68 0 0 Z " fill="#E5FDFE" transform="translate(96,110)"/>
<path d="M0 0 C1.98 0 3.96 0 6 0 C6.33 0.99 6.66 1.98 7 3 C4.69 3 2.38 3 0 3 C0 2.01 0 1.02 0 0 Z " fill="#F4FDFD" transform="translate(40,84)"/>
<path d="M0 0 C2.475 0.495 2.475 0.495 5 1 C5.33 2.98 5.66 4.96 6 7 C5.34 6.01 4.68 5.02 4 4 C1.94996045 2.80767387 1.94996045 2.80767387 0 2 C0 1.34 0 0.68 0 0 Z " fill="#D7FCFD" transform="translate(186,105)"/>
<path d="M0 0 C1.65 0 3.3 0 5 0 C5 1.32 5 2.64 5 4 C3.35 4 1.7 4 0 4 C0 2.68 0 1.36 0 0 Z " fill="#D7F7FB" transform="translate(113,104)"/>
<path d="M0 0 C1.32 0 2.64 0 4 0 C4 1.65 4 3.3 4 5 C2.68 5 1.36 5 0 5 C0 3.35 0 1.7 0 0 Z " fill="#D5DEE3" transform="translate(96,124)"/>
<path d="M0 0 C0 2.31 0 4.62 0 7 C-1.65 5.35 -3.3 3.7 -5 2 C-1.125 0 -1.125 0 0 0 Z " fill="#B4F0F8" transform="translate(129,104)"/>
</svg>
